M48
METRIC,TZ
T1C0.90
T2C3.20
%
T1
X-24.13Y-24.67
X-24.13Y-22.13
X-24.13Y-19.59
X-24.13Y-17.05
X-24.13Y-14.51
X-24.13Y-11.97
X-24.13Y-9.43
X-24.13Y-6.89
X-24.13Y-4.35
X-24.13Y-1.81
X-24.13Y0.73
X-24.13Y3.27
X-24.13Y5.81
X-24.13Y8.35
X-24.13Y10.89
X-24.13Y13.43
X-24.13Y15.97
X-24.13Y18.51
X-24.13Y21.05
X-24.13Y23.59
X-24.13Y26.13
X-24.13Y28.67
X24.13Y-24.67
X24.13Y-22.13
X24.13Y-19.59
X24.13Y-17.05
X24.13Y-14.51
X24.13Y-11.97
X24.13Y-9.43
X24.13Y-6.89
X24.13Y-4.35
X24.13Y-1.81
X24.13Y0.73
X24.13Y3.27
X24.13Y5.81
X24.13Y8.35
X24.13Y10.89
X24.13Y13.43
X24.13Y15.97
X24.13Y18.51
X24.13Y21.05
X24.13Y23.59
X24.13Y26.13
X24.13Y28.67
X-7.62Y-8.00
X-5.08Y-8.00
X-2.54Y-8.00
X0.00Y-8.00
X2.54Y-8.00
X5.08Y-8.00
X7.62Y-8.00
X-5.71Y-45.80
X-3.17Y-45.80
X-0.63Y-45.80
X1.91Y-45.80
X-81.00Y-18.57
X-81.00Y-16.03
X-81.00Y-13.49
X-81.00Y-10.95
X-81.00Y-8.41
X-81.00Y-5.87
X30.00Y-14.15
X30.00Y-11.61
X30.00Y-9.07
X30.00Y-6.53
X30.00Y-3.99
X30.00Y-1.45
X81.00Y-18.57
X81.00Y-16.03
X81.00Y-13.49
X81.00Y-10.95
X81.00Y-8.41
X81.00Y-5.87
X58.42Y36.00
X60.96Y36.00
X63.50Y36.00
X66.04Y36.00
X68.58Y36.00
X71.12Y36.00
X73.66Y36.00
X-2.54Y42.00
X2.54Y42.00
X-74.64Y28.50
X-72.11Y28.50
X-65.14Y28.50
X-62.60Y28.50
X62.60Y28.50
X65.14Y28.50
X72.11Y28.50
X74.64Y28.50
X-77.00Y25.00
X-77.00Y27.00
X-67.00Y25.00
X-67.00Y27.00
X60.00Y25.00
X60.00Y27.00
X70.00Y24.00
X70.00Y26.00
X8.00Y41.00
X98.00Y-16.00
X-7.62Y-11.00
X-5.08Y-11.00
X-29.50Y-2.00
X-74.00Y-16.00
X-92.00Y-15.00
X-87.00Y-12.00
X22.50Y-42.00
X4.00Y-44.00
X-20.50Y-7.00
X56.00Y24.00
X-22.00Y-8.00
X56.00Y20.00
T2
X-63.90Y30.00
X-73.40Y30.00
X63.90Y30.00
X73.40Y30.00
T0
M30
